<svg class="t676__divider" style="fill:#002d6d;" xmlns="http://www.w3.org/2000/svg" width="50" height="11.93"
     viewBox="0 0 88 21">
  <path fill-rule="evenodd"
        d="M77.2 20.9s-.9-4.3-3.5-6.9c-2.6-2.6-6.9-3.5-6.9-3.5s4.3-.9 6.9-3.5c2.6-2.7 3.5-7 3.5-7s.9 4.3 3.5 7c2.6 2.6 7 3.5 7 3.5s-4.3.9-6.9 3.5c-2.7 2.6-3.6 6.9-3.6 6.9zm-32.9 0s-.9-4.3-3.5-6.9c-2.6-2.6-6.9-3.5-6.9-3.5s4.3-.9 6.9-3.5c2.6-2.7 3.5-7 3.5-7s.9 4.3 3.5 7c2.6 2.6 7 3.5 7 3.5s-4.3.9-6.9 3.5c-2.7 2.6-3.6 6.9-3.6 6.9zm-33.2 0s-.9-4.3-3.5-6.9C5 11.4.7 10.5.7 10.5S5 9.6 7.6 7c2.5-2.7 3.5-7 3.5-7s.9 4.3 3.5 7c2.6 2.6 7 3.5 7 3.5s-4.3.9-6.9 3.5c-2.7 2.6-3.6 6.9-3.6 6.9z"></path>
</svg>
