<?xml version="1.0" encoding="iso-8859-1"?>
<!-- Generator: Adobe Illustrator 22.0.1, SVG Export Plug-In . SVG Version: 6.00 Build 0)  -->
<svg version="1.1" id="Layer_1" xmlns="http://www.w3.org/2000/svg" xmlns:xlink="http://www.w3.org/1999/xlink" x="0px" y="0px"
	 viewBox="0 0 100.25 100.25" style="enable-background:new 0 0 100.25 100.25;" xml:space="preserve">
<g>
	<path d="M50.239,57.014c-19.84,0-35.98,16.144-35.98,35.986c0,0.828,0.671,1.5,1.5,1.5h68.965c0.829,0,1.5-0.672,1.5-1.5
		C86.224,73.158,70.081,57.014,50.239,57.014z M17.292,91.5c0.787-17.495,15.264-31.486,32.947-31.486
		c17.685,0,32.164,13.991,32.951,31.486H17.292z"/>
	<path d="M49.642,11.633c-11.418,0-20.708,9.288-20.708,20.704c0,11.418,9.29,20.707,20.708,20.707
		c11.416,0,20.704-9.289,20.704-20.707C70.346,20.921,61.058,11.633,49.642,11.633z M49.642,50.044
		c-9.764,0-17.708-7.943-17.708-17.707c0-9.762,7.944-17.704,17.708-17.704c9.762,0,17.704,7.942,17.704,17.704
		C67.346,42.101,59.404,50.044,49.642,50.044z"/>
	<path d="M22.999,44.5h2.199c0.829,0,1.5-0.672,1.5-1.5V23c0-0.504,0.009-0.618,0.009-0.996C30.87,12.688,39.348,6.5,49.642,6.5
		c10.687,0,20.124,6.423,24.043,16.361c0.006,0.015,0.016,0.028,0.022,0.042c-0.002,0.032-0.01,0.063-0.01,0.096v18.772
		c-1.288,3.276-3.194,6.212-5.673,8.723c-0.582,0.59-0.576,1.539,0.014,2.121c0.292,0.289,0.673,0.433,1.054,0.433
		c0.387,0,0.774-0.149,1.067-0.446c2.347-2.378,4.23-5.099,5.626-8.103h1.607c6.341,0,11.5-5.158,11.5-11.499
		c0-6.342-5.159-11.501-11.5-11.501h-1.031c-4.437-10.942-14.889-18-26.72-18c-11.778,0-21.627,7.164-26.1,18.016
		c0,0-0.524-0.006-0.628-0.012C16.612,21.549,11.499,26.687,11.499,33C11.5,39.342,16.658,44.5,22.999,44.5z M76.698,24.5h0.695
		c4.687,0,8.5,3.813,8.5,8.501c0,4.687-3.813,8.499-8.5,8.499h-0.695V24.5z M22.999,24.5h0.699v17h-0.699
		c-4.687,0-8.499-3.812-8.499-8.499C14.5,28.314,18.313,24.5,22.999,24.5z"/>
</g>
</svg>
