<?xml version="1.0" encoding="iso-8859-1"?>
<!-- Generator: Adobe Illustrator 22.0.1, SVG Export Plug-In . SVG Version: 6.00 Build 0)  -->
<svg version="1.1" id="Layer_1" xmlns="http://www.w3.org/2000/svg" xmlns:xlink="http://www.w3.org/1999/xlink" x="0px" y="0px"
	 viewBox="0 0 100.25 100.25" style="enable-background:new 0 0 100.25 100.25;" xml:space="preserve">
<g>
	<path d="M50.089,53.806c-20.727,0-37.589,16.861-37.589,37.587c0,0.828,0.672,1.5,1.5,1.5h58.901
		c0.045,0.004,0.089,0.014,0.135,0.014s0.09-0.01,0.135-0.014h12.997c0.828,0,1.5-0.672,1.5-1.5
		C87.669,70.667,70.811,53.806,50.089,53.806z M28,64.809c3.226-2.685,6.944-4.794,11-6.171v14.755c0,0.828,0.672,1.5,1.5,1.5h19
		c0.828,0,1.5-0.672,1.5-1.5V58.58c3.856,1.286,7.415,3.227,10.536,5.702v25.611H28V64.809z M58,57.728v14.165H42V57.768
		c2.596-0.625,5.304-0.962,8.089-0.962C52.811,56.806,55.458,57.131,58,57.728z M25,67.608v22.285h-9.468
		C15.902,81.28,19.436,73.473,25,67.608z M74.536,89.893V66.968c5.924,5.932,9.718,13.991,10.101,22.925
		C84.637,89.893,74.536,89.893,74.536,89.893z"/>
	<path d="M49.456,50.071c11.91,0,21.601-9.687,21.601-21.593c0-11.91-9.69-21.601-21.601-21.601s-21.602,9.69-21.602,21.601
		C27.854,40.384,37.545,50.071,49.456,50.071z M49.456,9.877c7.958,0,14.744,5.032,17.395,12.073
		c-2.893-1.264-7.939-3.887-11.128-5.625c-0.422-0.229-0.927-0.244-1.359-0.038c-0.074,0.035-7.457,3.526-12.258,5.526l-0.456,0.191
		c-3.641,1.522-5.981,2.495-10.457,2.986C32.832,16.397,40.392,9.877,49.456,9.877z M30.877,28.04c5.33-0.512,8-1.624,11.93-3.267
		l0.455-0.189c3.995-1.665,9.732-4.339,11.696-5.26c2.48,1.338,10.216,5.453,12.838,6.184c0.157,0.97,0.26,1.957,0.26,2.971
		c0,10.252-8.344,18.593-18.601,18.593s-18.602-8.341-18.602-18.593C30.854,28.33,30.873,28.187,30.877,28.04z"/>
</g>
</svg>
